<?xml version="1.0" standalone="no"?>
<!DOCTYPE svg PUBLIC "-//W3C//DTD SVG 20010904//EN"
 "http://www.w3.org/TR/2001/REC-SVG-20010904/DTD/svg10.dtd">
<svg version="1.0" xmlns="http://www.w3.org/2000/svg"
 width="925.000000pt" height="925.000000pt" viewBox="0 0 925.000000 925.000000"
 preserveAspectRatio="xMidYMid meet">
<metadata>
Created by potrace 1.14, written by Peter Selinger 2001-2017
</metadata>
<g transform="translate(0.000000,925.000000) scale(0.100000,-0.100000)"
fill="#000000" stroke="none">
<path d="M6010 8915 c-96 -35 -258 -93 -359 -130 -102 -36 -188 -68 -192 -71
-4 -2 7 -43 23 -89 18 -50 27 -89 22 -94 -5 -4 -83 -34 -174 -66 -91 -31 -169
-61 -173 -65 -5 -4 18 -84 51 -176 32 -93 64 -187 69 -209 6 -22 36 -111 67
-199 31 -87 55 -160 53 -162 -2 -2 -84 -33 -183 -68 -173 -62 -179 -65 -177
-91 1 -15 25 -89 53 -166 27 -76 51 -148 53 -160 2 -18 -18 -28 -167 -80 -133
-47 -171 -58 -177 -47 -5 7 -34 86 -65 176 -31 89 -60 165 -65 167 -7 5 -180
-56 -559 -198 -132 -49 -178 -62 -186 -54 -9 9 -134 346 -134 361 0 2 79 32
175 67 99 35 175 68 175 75 0 13 -116 343 -123 350 -2 3 -121 -36 -263 -86
-142 -50 -305 -107 -362 -127 -121 -42 -118 -43 -152 59 -12 37 -26 70 -30 73
-8 5 -213 -64 -342 -114 l-28 -10 32 -86 c17 -47 29 -87 27 -88 -2 -2 -86 -32
-186 -67 -101 -36 -183 -69 -183 -75 0 -14 175 -513 315 -899 42 -115 74 -210
72 -212 -14 -14 -350 -125 -356 -118 -5 5 -36 87 -70 182 -34 96 -68 184 -76
196 -12 18 -98 245 -122 319 -3 10 -11 16 -17 14 -193 -66 -346 -124 -346
-130 0 -5 27 -83 60 -174 33 -90 60 -170 60 -177 0 -16 -358 -142 -370 -130
-5 5 -36 85 -69 178 -33 93 -64 173 -69 178 -10 10 -364 -114 -370 -130 -2 -6
24 -87 57 -180 34 -93 61 -176 61 -183 0 -9 -43 -29 -110 -53 -61 -21 -112
-41 -114 -45 -2 -3 28 -91 66 -196 38 -104 127 -353 198 -553 71 -199 132
-367 135 -372 12 -19 265 -734 265 -748 0 -9 6 -12 18 -7 9 4 130 47 267 95
138 49 358 128 490 175 132 48 377 135 545 195 292 104 646 231 683 245 16 7
17 -4 17 -144 l0 -151 200 0 200 0 0 135 0 135 130 0 130 0 0 133 0 133 63 21
c34 11 170 60 302 108 402 145 795 285 895 320 52 18 103 36 113 40 15 7 17
-2 17 -94 l0 -101 140 0 140 0 0 139 c0 137 0 140 -22 143 -14 2 38 25 131 58
85 30 158 57 163 58 4 2 8 -51 8 -117 l0 -121 -40 0 -40 0 0 -140 0 -140 140
0 140 0 0 100 0 100 85 0 85 0 0 190 0 189 -96 3 -95 3 238 84 c131 46 244 86
251 89 9 3 12 -12 12 -57 l0 -61 95 0 95 0 0 -70 0 -70 40 0 40 0 0 -60 0 -60
155 0 155 0 0 80 0 80 45 0 45 0 0 -40 0 -40 95 0 c78 0 95 3 95 15 0 12 16
15 80 15 l80 0 0 80 0 80 85 0 85 0 0 70 0 70 -130 0 -130 0 0 -70 0 -70 -40
0 c-39 0 -40 -1 -40 -35 l0 -35 -90 0 -90 0 0 70 0 70 -95 0 -95 0 0 -50 0
-50 -50 0 c-49 0 -50 1 -50 30 l0 30 -95 0 -96 0 3 76 3 76 70 26 c39 14 71
26 73 28 3 2 -224 641 -293 824 -19 52 -62 173 -95 270 -81 239 -403 1142
-413 1157 -6 9 -28 5 -89 -17 -44 -16 -85 -34 -92 -39 -6 -5 -92 -38 -191 -74
-99 -35 -242 -87 -318 -115 -75 -28 -160 -58 -187 -66 -61 -18 -51 -33 -130
191 l-58 164 27 11 c103 40 337 118 355 118 12 0 26 4 32 8 5 5 82 35 172 66
89 32 162 63 162 69 0 16 -63 177 -69 177 -3 -1 -85 -30 -181 -65z m-2727
-1207 c3 -13 26 -77 51 -143 25 -66 46 -127 46 -136 0 -9 3 -19 7 -23 4 -3 8
-13 9 -20 1 -8 32 -98 68 -201 36 -102 66 -188 66 -190 0 -4 -93 -39 -246 -94
l-112 -39 -66 186 c-50 140 -63 188 -55 199 9 10 8 13 -4 13 -13 0 -32 46 -27
66 1 4 -2 10 -7 13 -13 8 -97 251 -90 258 6 5 334 130 348 132 4 1 9 -9 12
-21z m817 -2673 c0 -24 -2 -25 -72 -24 l-73 0 60 23 c78 31 85 31 85 1z"/>
<path d="M3245 7690 c3 -5 8 -10 11 -10 2 0 4 5 4 10 0 6 -5 10 -11 10 -5 0
-7 -4 -4 -10z"/>
<path d="M3333 7405 c0 -8 4 -15 8 -15 4 0 9 7 13 15 3 9 0 15 -8 15 -7 0 -13
-7 -13 -15z"/>
<path d="M6980 8470 c-9 -6 -10 -10 -3 -10 6 0 15 5 18 10 8 12 4 12 -15 0z"/>
<path d="M6800 8220 c0 -39 1 -40 35 -40 34 0 35 1 35 40 0 39 -1 40 -35 40
-34 0 -35 -1 -35 -40z"/>
<path d="M6960 8120 c0 -39 1 -40 35 -40 34 0 35 1 35 40 0 39 -1 40 -35 40
-34 0 -35 -1 -35 -40z"/>
<path d="M7060 7901 c0 -134 -4 -129 81 -123 l49 4 0 50 c0 53 1 52 -57 31
-10 -4 -13 15 -13 76 l0 81 -30 0 -30 0 0 -119z"/>
<path d="M7200 7690 c0 -79 0 -80 25 -80 25 0 25 1 25 80 0 79 0 80 -25 80
-25 0 -25 -1 -25 -80z"/>
<path d="M7120 7475 c0 -10 10 -15 30 -15 20 0 30 5 30 15 0 10 -10 15 -30 15
-20 0 -30 -5 -30 -15z"/>
<path d="M2120 7340 c-8 -5 -10 -10 -5 -10 6 0 17 5 25 10 8 5 11 10 5 10 -5
0 -17 -5 -25 -10z"/>
<path d="M2055 7321 c-17 -4 -40 -13 -50 -20 -14 -9 -15 -11 -3 -7 9 3 35 10
57 16 23 6 41 13 41 15 0 6 -5 5 -45 -4z"/>
<path d="M1780 7243 c1 -22 16 -29 37 -18 13 7 20 15 16 18 -9 9 -53 9 -53 0z"/>
<path d="M7820 6350 l0 -60 95 0 95 0 0 60 0 60 -95 0 -95 0 0 -60z"/>
<path d="M8610 6100 l0 -80 85 0 85 0 0 80 0 80 -85 0 -85 0 0 -80z"/>
<path d="M8340 6030 l0 -80 40 0 40 0 0 -50 0 -50 55 0 55 0 0 60 c0 33 -4 60
-10 60 -6 0 -10 30 -10 70 l0 70 -85 0 -85 0 0 -80z"/>
<path d="M9090 5995 l0 -65 80 0 80 0 0 65 0 65 -80 0 -80 0 0 -65z"/>
<path d="M8660 5910 l0 -60 55 0 55 0 0 60 0 60 -55 0 -55 0 0 -60z"/>
<path d="M6780 5800 c0 -133 1 -140 20 -140 18 0 20 -7 20 -65 l0 -65 95 0 95
0 0 65 c0 63 1 65 25 65 l25 0 0 140 0 140 -140 0 -140 0 0 -140z"/>
<path d="M7710 5630 l0 -70 60 0 60 0 0 70 0 70 -60 0 -60 0 0 -70z"/>
<path d="M7380 5620 l0 -60 95 0 95 0 0 60 0 60 -95 0 -95 0 0 -60z"/>
<path d="M9090 5440 l0 -50 45 0 45 0 0 50 0 50 -45 0 -45 0 0 -50z"/>
<path d="M8480 5275 c0 -22 4 -25 35 -25 31 0 35 3 35 25 0 22 -4 25 -35 25
-31 0 -35 -3 -35 -25z"/>
<path d="M4660 5165 l0 -45 55 0 55 0 0 45 0 45 -55 0 -55 0 0 -45z"/>
<path d="M9005 5195 c-5 -2 -53 -13 -105 -24 -52 -12 -167 -39 -255 -61 -88
-22 -234 -57 -325 -79 -91 -22 -230 -57 -310 -77 -80 -20 -174 -42 -210 -50
-36 -7 -108 -25 -160 -38 -159 -42 -433 -108 -475 -116 -22 -4 -105 -24 -185
-44 -388 -98 -467 -118 -490 -121 -30 -4 -131 -30 -220 -55 -36 -10 -81 -21
-100 -24 -19 -3 -78 -16 -130 -30 -52 -14 -135 -35 -185 -47 -49 -11 -160 -38
-245 -59 -317 -79 -377 -93 -475 -115 -55 -13 -145 -35 -200 -50 -55 -14 -120
-30 -145 -34 -25 -5 -108 -25 -185 -44 -77 -20 -216 -55 -310 -77 -93 -23
-233 -57 -310 -77 -77 -20 -160 -39 -185 -44 -25 -4 -88 -20 -140 -34 -52 -14
-133 -34 -180 -44 -47 -10 -141 -33 -210 -51 -69 -18 -138 -34 -155 -37 -16
-2 -59 -13 -95 -23 -83 -24 -194 -51 -223 -55 -12 -1 -94 -21 -182 -44 -88
-23 -170 -43 -184 -46 -29 -5 -311 -75 -471 -116 -63 -16 -144 -36 -180 -43
-36 -7 -121 -28 -190 -46 -69 -18 -153 -38 -188 -46 -34 -7 -106 -25 -160 -39
-53 -14 -128 -32 -167 -40 -38 -8 -121 -28 -184 -45 -63 -17 -126 -32 -140
-34 -14 -2 -87 -20 -162 -39 -74 -20 -150 -39 -169 -42 -19 -3 -95 -22 -169
-42 -75 -19 -151 -37 -170 -40 -40 -5 -71 -20 -71 -35 0 -14 94 -3 180 22 36
10 108 28 160 40 52 12 169 39 260 60 91 22 235 55 320 75 85 20 229 53 320
75 147 35 191 45 225 51 6 1 35 8 65 15 30 8 125 30 210 49 85 20 209 49 275
65 211 51 419 99 455 105 19 3 88 20 152 36 65 17 139 34 165 38 27 5 113 24
193 44 276 68 455 110 478 113 13 1 89 18 170 38 81 19 226 53 322 76 206 47
455 106 665 156 83 20 163 38 179 40 16 2 84 18 150 35 108 27 142 35 236 54
14 3 93 22 175 41 83 20 227 54 320 76 94 21 244 57 335 78 91 21 237 55 325
75 88 21 225 53 305 72 80 19 165 38 190 43 25 4 100 22 166 39 67 17 136 33
153 36 17 2 97 20 178 40 81 21 157 38 168 40 11 1 88 18 170 38 83 20 229 55
325 77 251 58 532 125 700 164 80 19 156 37 170 39 86 16 109 22 140 35 19 8
42 24 52 36 10 11 22 27 28 34 30 35 -30 75 -85 57z m52 -26 c9 -9 9 -18 -2
-38 -12 -24 -29 -31 -187 -68 -320 -77 -480 -115 -502 -118 -11 -2 -79 -18
-151 -36 -71 -17 -148 -35 -170 -39 -46 -9 -43 -9 -240 -55 -270 -64 -477
-113 -655 -154 -96 -22 -242 -57 -325 -77 -82 -20 -163 -38 -180 -40 -16 -2
-93 -19 -170 -38 -77 -19 -221 -53 -320 -76 -99 -23 -244 -57 -321 -76 -78
-19 -155 -36 -170 -38 -16 -2 -96 -20 -179 -40 -82 -20 -226 -54 -320 -76 -93
-22 -235 -55 -315 -75 -80 -19 -156 -36 -170 -39 -71 -14 -305 -69 -370 -86
-44 -12 -215 -50 -224 -50 -3 0 -6 4 -6 8 0 5 53 21 118 37 64 15 186 46 271
67 85 22 166 41 180 43 14 2 78 18 141 35 63 17 138 35 165 40 28 5 93 21 145
35 52 14 135 34 184 45 48 11 139 33 201 50 61 16 125 32 141 34 16 2 92 20
169 40 77 20 151 38 165 41 14 3 88 21 165 41 77 20 187 47 245 59 58 13 121
29 140 35 19 6 85 22 145 35 61 14 153 36 205 51 52 14 115 29 140 33 25 5
108 25 185 44 216 55 468 117 492 122 25 4 344 83 518 127 66 17 131 32 145
34 14 2 86 19 160 39 74 20 149 38 165 40 17 3 102 24 190 49 181 49 187 50
202 35z m-4987 -1218 c0 -11 -40 -22 -54 -14 -5 4 -1 10 10 14 27 11 44 11 44
0z m-110 -27 c0 -8 -4 -12 -10 -9 -5 3 -10 10 -10 16 0 5 5 9 10 9 6 0 10 -7
10 -16z m40 12 c0 -11 -19 -15 -25 -6 -3 5 1 10 9 10 9 0 16 -2 16 -4z m-80
-16 c0 -5 -5 -10 -11 -10 -5 0 -7 5 -4 10 3 6 8 10 11 10 2 0 4 -4 4 -10z
m-40 -10 c0 -5 -4 -10 -10 -10 -5 0 -10 5 -10 10 0 6 5 10 10 10 6 0 10 -4 10
-10z m-30 -10 c0 -5 -4 -10 -10 -10 -5 0 -10 5 -10 10 0 6 5 10 10 10 6 0 10
-4 10 -10z m-40 -10 c0 -5 -4 -10 -10 -10 -5 0 -10 5 -10 10 0 6 5 10 10 10 6
0 10 -4 10 -10z m-40 -10 c0 -5 -4 -10 -10 -10 -5 0 -10 5 -10 10 0 6 5 10 10
10 6 0 10 -4 10 -10z m-70 -20 c0 -5 -4 -10 -10 -10 -5 0 -10 5 -10 10 0 6 5
10 10 10 6 0 10 -4 10 -10z"/>
<path d="M4800 5065 l0 -55 35 0 35 0 0 55 0 55 -35 0 -35 0 0 -55z"/>
<path d="M4460 4935 l0 -55 45 0 45 0 0 55 0 55 -45 0 -45 0 0 -55z"/>
<path d="M8800 4150 c0 -27 3 -30 30 -30 27 0 30 3 30 30 0 27 -3 30 -30 30
-27 0 -30 -3 -30 -30z"/>
<path d="M8570 4060 c0 -27 3 -30 30 -30 27 0 30 3 30 30 0 27 -3 30 -30 30
-27 0 -30 -3 -30 -30z"/>
<path d="M8390 4050 c0 -27 3 -30 30 -30 27 0 30 3 30 30 0 27 -3 30 -30 30
-27 0 -30 -3 -30 -30z"/>
<path d="M8700 3970 c0 -27 3 -30 30 -30 27 0 30 3 30 30 0 27 -3 30 -30 30
-27 0 -30 -3 -30 -30z"/>
<path d="M8180 3940 l0 -50 70 0 70 0 0 50 0 50 -70 0 -70 0 0 -50z"/>
<path d="M8480 3975 c0 -9 9 -15 25 -15 16 0 25 6 25 15 0 9 -9 15 -25 15 -16
0 -25 -6 -25 -15z"/>
<path d="M8090 3940 c0 -11 5 -20 10 -20 6 0 10 9 10 20 0 11 -4 20 -10 20 -5
0 -10 -9 -10 -20z"/>
<path d="M8320 3850 c0 -27 3 -30 30 -30 27 0 30 3 30 30 0 27 -3 30 -30 30
-27 0 -30 -3 -30 -30z"/>
<path d="M7970 3745 l0 -85 45 0 45 0 0 85 0 85 -45 0 -45 0 0 -85z"/>
<path d="M8130 3720 l0 -60 65 0 65 0 0 60 0 60 -65 0 -65 0 0 -60z"/>
<path d="M6180 3700 l0 -70 70 0 70 0 0 70 0 70 -70 0 -70 0 0 -70z"/>
<path d="M7010 3655 l0 -75 50 0 50 0 0 75 0 75 -50 0 -50 0 0 -75z"/>
<path d="M7670 3715 c0 -10 -10 -15 -30 -15 -29 0 -30 -1 -30 -50 0 -49 1 -50
30 -50 28 0 30 -3 30 -35 0 -34 1 -35 40 -35 l40 0 0 100 0 100 -40 0 c-29 0
-40 -4 -40 -15z"/>
<path d="M7870 3600 c0 -27 3 -30 30 -30 27 0 30 3 30 30 0 27 -3 30 -30 30
-27 0 -30 -3 -30 -30z"/>
<path d="M7150 3485 l0 -75 75 0 75 0 0 75 0 75 -75 0 -75 0 0 -75z"/>
<path d="M7800 3430 l0 -90 100 0 100 0 0 90 0 90 -100 0 -100 0 0 -90z"/>
<path d="M6610 3370 l0 -110 45 0 c45 0 45 0 45 -35 l0 -35 -100 0 -100 0 0
45 0 45 -110 0 -110 0 0 -45 0 -45 -125 0 -125 0 0 75 0 75 -130 0 -130 0 0
-75 0 -75 -2050 0 -2050 0 0 -1505 0 -1505 3000 0 3000 0 0 1485 0 1485 40 0
40 0 0 100 0 100 -110 0 -110 0 0 -80 0 -80 -160 0 -160 0 0 55 0 55 -125 0
-125 0 0 -55 c0 -30 -4 -55 -10 -55 -6 0 -10 33 -10 80 l0 80 -35 0 -35 0 0
65 0 65 -130 0 -130 0 0 -110z m490 -2104 c0 -3 -4 -8 -10 -11 -5 -3 -10 -1
-10 4 0 6 5 11 10 11 6 0 10 -2 10 -4z"/>
<path d="M7340 3330 l0 -40 55 0 55 0 0 40 0 40 -55 0 -55 0 0 -40z"/>
<path d="M8030 3295 c0 -11 11 -15 40 -15 29 0 40 4 40 15 0 11 -11 15 -40 15
-29 0 -40 -4 -40 -15z"/>
</g>
</svg>
